<svg xmlns="http://www.w3.org/2000/svg" xmlns:xlink="http://www.w3.org/1999/xlink" version="1.1" id="Layer_1" x="0px" y="0px" width="100%" viewBox="0 0 1115 224" enable-background="new 0 0 1115 224" xml:space="preserve">
<path fill="#000000" opacity="1.000000" stroke="none" d=" M840.000000,225.000000   C560.000000,225.000000 280.500000,225.000000 1.000000,225.000000   C1.000000,150.333328 1.000000,75.666664 1.000000,1.000000   C372.666656,1.000000 744.333313,1.000000 1116.000000,1.000000   C1116.000000,75.666664 1116.000000,150.333328 1116.000000,225.000000   C1024.166626,225.000000 932.333313,225.000000 840.000000,225.000000  M805.057983,169.979309   C819.426819,163.591141 825.327209,152.163254 825.028870,136.864563   C824.843689,127.369965 825.212036,117.862350 824.928040,108.372665   C824.720154,101.425552 822.045227,95.253906 817.464905,89.940178   C807.200317,78.031906 785.504761,75.294395 772.873047,83.494888   C760.416687,91.581573 752.958740,106.887611 757.727844,122.296028   C761.695862,135.116425 770.168701,142.366867 783.309448,145.152008   C795.825256,147.804703 806.013733,144.367065 814.862366,135.595688   C815.291809,143.862427 815.773132,151.963226 807.761047,157.846252   C796.360168,166.217514 776.957031,163.650665 769.599915,154.097366   C766.063599,149.505447 762.302795,148.647903 757.382202,151.213470   C760.479065,158.260010 764.610718,164.500610 772.059998,167.530426   C782.481628,171.769226 793.175232,173.467255 805.057983,169.979309  M275.669647,92.862862   C274.559143,95.309685 273.454926,97.759384 272.336853,100.202736   C269.877808,105.576668 267.490234,110.985077 264.931732,116.311333   C260.069855,126.432823 255.108566,136.506561 250.186996,146.603333   C255.496674,149.694519 260.681702,147.933762 263.095764,142.642929   C266.734131,134.668716 270.718201,126.852219 274.733154,118.603363   C287.316528,118.603363 299.825134,118.603363 311.929291,118.603363   C316.746918,128.723724 321.393738,138.485291 325.774292,147.687546   C329.799225,147.261581 332.892853,146.934189 336.009705,146.604324   C321.990631,116.691444 308.170563,87.203186 293.897125,56.747551   C292.077148,59.613861 290.875244,61.159348 290.038452,62.882164   C285.304474,72.628708 280.657959,82.417747 275.669647,92.862862  M1032.000977,97.585670   C1031.897949,86.498512 1029.309692,76.383316 1022.177917,67.416679   C1010.924988,53.268524 990.353638,54.067871 980.052673,67.795532   C972.594727,77.734383 971.696716,89.683281 971.182251,101.408409   C970.863037,108.682930 971.632141,116.190895 973.198547,123.311195   C974.826416,130.710342 978.249023,137.813416 984.391296,142.660492   C993.218811,149.626648 1003.651917,150.292755 1013.263428,145.615097   C1023.145874,140.805603 1029.412109,131.939468 1030.882690,120.738091   C1031.842896,113.424011 1031.667725,105.960884 1032.000977,97.585670  M445.182861,80.287888   C441.886017,82.261749 438.150024,83.755531 435.371948,86.296570   C425.800201,95.051788 422.237732,105.787689 423.772766,118.975914   C425.096985,130.352539 435.047943,143.761932 447.246368,146.803085   C461.430573,150.339325 477.642090,145.481903 485.022797,133.958618   C489.284943,127.304214 489.317017,127.177277 482.118988,124.054749   C481.703400,123.874458 481.141541,124.031403 480.684753,124.031403   C472.095367,138.879288 459.435944,141.131668 450.049530,138.286133   C438.382355,134.749176 432.087372,124.644173 433.311737,115.001610   C440.497772,115.001610 447.615601,115.001564 454.733429,115.001617   C463.557495,115.001678 472.381561,115.001648 481.205627,115.001991   C491.466339,115.002388 491.904205,114.912285 489.875153,105.069466   C487.910034,95.537003 482.677917,87.889099 473.909882,82.971092   C464.991547,77.968788 455.573944,78.287552 445.182861,80.287888  M133.618240,131.077164   C131.904480,126.721138 128.151779,125.912979 124.113434,125.656914   C119.544556,125.367218 115.845993,127.424332 113.608391,131.074295   C110.980370,135.361115 110.854156,140.590225 114.304260,144.201889   C116.704369,146.714386 121.073021,148.894547 124.342628,148.618820   C128.055710,148.305710 130.170853,149.243896 132.935257,151.189316   C135.295212,152.850082 138.627625,154.167648 141.385788,153.934296   C144.192047,153.696869 146.851807,151.432083 149.524353,149.961700   C160.443573,143.954132 171.343155,137.910843 182.353195,131.823654   C183.726959,144.777802 183.356277,145.247299 172.116165,151.030060   C165.276550,154.548889 158.640228,158.462830 151.472321,162.443787   C154.127274,163.832169 156.587372,164.551804 158.265976,166.112137   C161.984482,169.568680 165.612198,169.415939 169.699921,167.054001   C177.188660,162.726898 184.860077,158.699249 192.177948,154.104950   C193.996201,152.963409 195.775665,150.159683 195.831390,148.073471   C196.168030,135.470062 195.998886,122.853134 195.998886,109.425674   C187.529938,114.056931 179.667328,118.270012 171.888641,122.632698   C162.527542,127.882896 153.297516,133.368988 143.891724,138.536362   C139.244766,141.089325 135.594757,138.798599 134.959869,133.383301   C134.891144,132.797089 134.420135,132.258041 133.618240,131.077164  M140.259735,190.971069   C145.844193,187.664230 151.428665,184.357391 157.099106,180.999649   C156.752167,180.500870 156.566757,179.964691 156.193222,179.736542   C145.228638,173.039474 134.200928,166.444687 123.282608,159.673416   C117.268059,155.943329 111.223000,152.199280 105.608345,147.915436   C102.980125,145.910172 102.278214,143.059311 105.410583,139.789261   C107.682755,137.417236 109.278015,133.788544 109.791084,130.504013   C110.348328,126.936676 104.690361,120.871674 101.223450,120.000847   C94.954956,118.426331 91.720482,120.091866 86.780945,127.617889   C84.101173,131.700867 85.974617,135.992661 88.496620,138.508484   C92.017029,142.020294 91.399582,145.507645 90.344223,149.043564   C89.193954,152.897446 90.926361,155.033752 93.598389,156.884598   C95.698837,158.339539 98.072578,159.392838 100.265694,160.722275   C110.625305,167.002136 120.964539,173.315643 131.481461,179.720932   C124.305183,186.134857 120.909981,186.818619 113.657730,182.868118   C109.428902,180.564529 105.571709,177.587326 101.482346,175.016541   C97.924995,172.780197 94.276421,170.688980 89.998856,168.133835   C89.998856,172.473373 89.364388,175.803558 90.181877,178.727844   C90.959564,181.509781 92.699051,184.662811 94.987595,186.260406   C101.427231,190.755859 108.388939,194.499100 115.100426,198.611359   C118.276009,200.557098 121.237000,201.258514 124.761978,199.086090   C129.524704,196.150833 134.570114,193.674271 140.259735,190.971069  M35.998833,91.449326   C35.999294,96.921730 36.579453,102.475433 35.826740,107.842201   C35.159512,112.599487 37.000465,112.457748 39.952927,110.932030   C48.333450,106.601288 56.576622,102.005730 64.919640,97.601112   C72.436852,93.632484 79.952660,89.651085 87.595917,85.936256   C90.677956,84.438316 94.962196,83.258354 96.785820,86.857300   C101.377327,95.918648 101.543350,96.430550 110.291183,96.007408   C115.334732,95.763443 117.548416,92.353767 119.252739,88.250763   C120.858986,84.383865 119.922142,80.999420 117.416466,77.923744   C114.541473,74.394730 110.312050,70.747551 106.405624,72.677689   C102.081566,74.814186 100.267822,72.750946 97.331322,71.169678   C95.437012,70.149612 92.574593,69.109497 90.899010,69.829842   C85.037910,72.349586 79.529465,75.679794 73.839363,78.609512   C65.993431,82.649231 58.104141,86.604744 50.001377,90.714005   C50.001377,89.217896 50.161949,88.187943 49.975834,87.224998   C48.559620,79.897606 52.089523,75.872780 58.507206,72.996643   C66.117813,69.585899 73.420822,65.488777 81.231018,61.498085   C78.526955,59.621777 76.115540,58.252213 74.076309,56.459328   C71.312508,54.029400 68.664665,53.291203 65.241455,55.165962   C57.564602,59.370281 49.756443,63.334061 42.040844,67.468742   C38.138130,69.560150 35.962162,72.201111 36.791397,77.355164   C37.474449,81.600609 36.334457,86.139359 35.998833,91.449326  M86.979195,49.477386   C94.380539,54.323902 101.815857,59.119568 109.172363,64.033211   C114.939606,67.885345 120.866005,71.571121 126.205490,75.958969   C128.591202,77.919479 131.125275,80.660210 127.244331,84.747009   C122.451736,89.793823 122.743996,98.016678 127.080078,101.454353   C131.741089,105.149666 137.435974,106.284927 142.846146,102.008957   C146.506607,99.115860 149.340958,90.888847 144.964676,86.455330   C141.257675,82.699837 142.228073,78.325081 141.909332,73.970558   C141.785675,72.281036 141.147888,69.953552 139.925262,69.124390   C127.500046,60.697910 114.905487,52.521137 102.369034,44.281418   C111.351677,37.893322 113.353508,37.868507 122.807335,43.976929   C129.420471,48.249901 136.047699,52.501095 142.697571,56.780640   C145.041489,50.208229 144.619843,42.344101 140.938461,39.975349   C133.629181,35.272259 126.560349,30.168009 119.048409,25.823952   C116.774643,24.509066 112.846001,24.025177 110.571060,25.084389   C98.928513,30.505156 87.578712,36.554661 75.878235,42.510761   C79.585938,44.814022 82.982414,46.923954 86.979195,49.477386  M53.962505,138.204147   C53.962505,131.512070 53.962505,124.820007 53.962505,117.591095   C48.265682,120.361046 42.337597,121.854485 41.303188,128.394897   C40.547924,133.170334 40.645023,138.092590 40.534367,142.953308   C40.471046,145.734650 41.254475,148.613251 40.777714,151.291595   C39.649532,157.629425 40.967384,160.876480 46.456665,164.067017   C51.755112,167.146591 56.928871,170.440170 62.171097,173.617157   C66.722786,176.375641 71.293617,179.102524 76.293488,182.106201   C76.632896,180.436127 76.958961,179.534698 76.979462,178.626373   C77.342125,162.556854 77.622520,146.485306 78.042488,130.417389   C78.118378,127.513702 78.173798,124.394211 79.243324,121.786385   C80.573044,118.544098 81.877731,115.088524 87.386879,116.780846   C93.868294,118.771828 100.246033,113.597672 101.894356,106.357727   C102.791039,102.419228 98.458389,95.585892 94.075035,94.025330   C88.637810,92.089577 81.289062,94.737404 79.644241,100.031464   C78.275703,104.436264 75.581970,106.468742 71.662743,108.128510   C66.825920,110.176857 64.787109,115.441650 64.904503,120.493462   C65.206879,133.506180 65.005676,146.530579 65.005676,159.316284   C54.250656,156.185745 51.023155,149.115158 53.962505,138.204147  M183.289490,58.027771   C172.988312,52.382294 162.687134,46.736816 151.682098,40.705601   C152.179230,46.243637 152.885895,50.805866 152.942505,55.376148   C153.103424,68.365685 152.998962,81.358513 152.999115,94.350044   C152.999222,105.380898 151.552887,106.881424 140.805130,107.000076   C134.766083,107.066742 129.166580,114.580353 130.818390,120.400650   C132.165741,125.148140 137.830612,129.791519 142.529480,130.000015   C146.717712,130.185837 152.782150,126.214378 153.561279,121.572441   C154.110611,118.299606 156.015854,117.311691 158.243561,116.365829   C163.334808,114.204170 165.411530,110.990990 165.174606,105.060349   C164.621567,91.216385 164.998062,77.335289 164.998062,63.113461   C167.407883,64.250092 169.562668,64.798035 171.079712,66.093048   C173.290436,67.980225 176.252014,70.171761 176.729721,72.650536   C177.632675,77.335762 176.996780,82.317795 176.998016,87.176491   C176.999435,92.741119 176.998337,98.305748 176.998337,104.068748   C187.808853,100.395615 190.653671,98.216286 190.061127,89.556267   C189.686798,84.085663 189.788956,78.558281 190.054428,73.074615   C190.342514,67.123573 190.352600,61.489506 183.289490,58.027771  M861.000000,99.577499   C861.079041,101.006187 861.158142,102.434883 861.195801,103.114944   C866.316040,104.151314 870.935852,104.879868 875.441895,106.047607   C881.942505,107.732254 885.604126,112.697533 886.825439,118.739899   C888.174988,125.416740 884.254883,131.399368 879.313110,134.620575   C865.651489,143.525589 849.836426,138.533585 846.448181,122.228531   C843.325134,122.228531 840.214478,122.228531 836.773376,122.228531   C838.133850,129.585663 841.045227,135.553207 845.903992,141.138748   C853.902649,150.333801 875.724426,150.461960 884.857666,142.574341   C892.767456,135.743240 898.008057,127.400230 895.923828,116.390785   C894.321350,107.926003 889.041138,102.072800 881.190125,98.478981   C881.527588,98.094757 881.782898,97.590843 882.191345,97.370110   C894.001892,90.986870 894.627197,71.376434 882.786194,63.099247   C875.652283,58.112461 867.527344,55.262699 858.517761,58.014477   C850.109619,60.582584 840.274353,70.170876 840.270142,80.821671   C843.393127,80.821671 846.520020,80.821671 849.627319,80.821671   C852.842041,70.642693 861.881531,63.891781 873.089355,68.848785   C881.905579,72.748001 884.003601,84.418724 877.271851,89.039520   C873.948730,91.320511 869.831360,92.489357 865.997925,93.965477   C863.625916,94.878906 860.186035,94.425903 861.000000,99.577499  M943.996460,75.504440   C947.005737,71.311737 950.014954,67.119026 953.262207,62.594730   C951.446167,61.182686 949.632996,59.860340 947.920532,58.418335   C945.928528,56.740944 944.513062,57.507950 943.249146,59.322979   C934.118469,72.434578 924.715027,85.366646 915.933289,98.707932   C907.217834,111.948532 905.270447,126.273811 913.970642,138.208771   C919.811035,146.220657 933.943237,150.723679 943.070129,147.500534   C957.389526,142.443710 963.879211,132.044556 963.146912,118.390366   C962.517212,106.650299 951.417725,94.033905 939.556885,94.965645   C936.734131,95.187393 933.879150,94.998528 930.899719,94.998528   C935.408875,88.192451 939.439636,82.108513 943.996460,75.504440  M679.279785,127.809517   C681.082764,130.285797 682.987732,132.694824 684.671692,135.249527   C693.907776,149.261581 714.318420,151.334305 727.229553,144.055649   C743.030212,135.147934 749.371582,118.199577 742.903625,100.625999   C736.164734,82.316399 720.094116,76.435104 703.421387,79.427330   C687.589417,82.268661 676.445923,96.961624 677.076538,113.150291   C677.257690,117.799309 678.346619,122.412964 679.279785,127.809517  M555.852661,144.677567   C561.120728,141.213181 566.510986,137.869156 569.462646,131.699829   C566.473328,130.233276 564.076294,129.057281 561.649658,127.866760   C552.326843,138.164429 541.544922,141.815842 528.202271,137.055450   C515.685974,132.589890 509.611176,117.713554 512.758118,106.762337   C516.353027,94.252365 525.187195,88.175514 537.786438,87.773270   C546.630737,87.490921 554.859253,89.503860 560.325562,97.612770   C560.844116,98.382057 563.078979,98.788521 563.999268,98.328209   C565.938965,97.357994 567.535217,95.701057 570.279114,93.529030   C566.196106,90.030815 562.857666,86.742393 559.098022,84.039818   C551.646545,78.683449 542.937866,78.476349 534.272583,79.064056   C524.381348,79.734886 516.365051,84.368385 510.022980,91.889229   C503.127777,100.066010 501.292267,109.644928 503.050385,119.910080   C505.373047,133.471542 513.548523,141.577454 526.102783,146.006378   C535.916382,149.468445 545.536011,147.968826 555.852661,144.677567  M634.999207,107.500000   C634.998230,94.187035 634.998169,80.874062 634.995911,67.561096   C634.994446,58.889690 634.992920,58.886402 626.145630,59.050407   C625.870239,59.055515 625.599060,59.287228 624.999695,59.563881   C624.999695,61.048126 624.999695,62.685005 624.999695,64.321884   C624.999512,88.784431 625.000793,113.246986 624.995239,137.709534   C624.994873,139.203064 625.156738,140.739441 624.871521,142.182449   C623.842163,147.391373 624.198608,147.966934 629.556946,147.987137   C641.205566,148.031082 652.857727,147.845276 664.501648,148.084503   C668.579224,148.168274 669.060852,146.329651 669.092102,142.961563   C669.124390,139.480652 668.394775,137.817627 664.420410,137.919235   C654.671814,138.168442 644.912598,138.000702 634.999207,138.000702   C634.999207,127.791512 634.999207,118.145760 634.999207,107.500000  M590.000244,101.600174   C590.000244,99.826164 590.000244,98.052155 590.000244,95.894073   C595.248047,95.894073 600.003479,95.894073 604.747314,95.894073   C604.747314,93.087730 604.747314,90.682938 604.747314,87.889061   C599.758179,87.889061 595.007141,87.889061 589.999878,87.889061   C589.999878,78.692078 590.013123,69.892921 589.994690,61.093830   C589.984314,56.128403 588.415100,54.909340 583.594238,56.162354   C582.394958,56.474087 581.266235,57.057774 579.998718,57.558479   C579.998718,79.800117 579.783020,101.949455 580.118286,124.090454   C580.232300,131.618881 582.756531,138.909210 588.782898,143.875641   C595.579712,149.477020 603.303345,148.800400 611.314392,145.201691   C610.023621,142.508865 611.033936,137.667023 606.471069,138.253403   C595.958740,139.604370 590.033142,135.056778 590.005249,124.566605   C589.985718,117.236794 590.000793,109.906898 590.000244,101.600174  M343.999237,74.854279   C343.681824,83.131920 343.185059,91.407692 343.099121,99.687737   C343.018585,107.447403 343.481567,115.211334 343.498962,122.973854   C343.511292,128.468613 343.026245,133.964432 343.036163,139.459290   C343.052704,148.601578 341.275787,148.094467 352.002228,147.933487   C352.263062,147.929565 352.519165,147.612610 353.168274,147.183029   C353.168274,130.360367 353.168274,113.287834 353.168274,95.840340   C358.320404,95.840340 363.079193,95.840340 367.993896,95.840340   C367.993896,94.640907 367.989685,93.824944 367.994537,93.009026   C368.033844,86.414528 368.060974,86.560211 361.213165,87.835899   C358.681824,88.307465 355.988953,87.912056 352.124512,87.912056   C353.321442,81.912720 353.950409,76.297356 355.625122,71.013435   C357.550842,64.937477 362.729645,63.786579 371.550049,66.680969   C375.190094,59.111790 375.233185,58.790974 368.762299,56.998226   C356.197327,53.517136 346.741272,60.771091 343.999237,74.854279  M387.925049,63.616119   C384.193909,69.010956 382.950500,75.049255 382.973145,81.524597   C383.045410,102.186615 382.994629,122.849052 383.008423,143.511322   C383.009399,144.951004 383.149628,146.390594 383.218628,147.707001   C386.321564,147.707001 389.060638,147.707001 392.183746,147.707001   C392.183746,130.343170 392.183746,113.269669 392.183746,96.001076   C395.394562,96.001076 398.208221,96.001167 401.021881,96.001068   C408.554535,96.000786 408.835571,95.656952 407.325348,87.839073   C402.330627,87.839073 397.257233,87.839073 392.126343,87.839073   C392.126343,85.171463 391.882233,82.833900 392.193542,80.572807   C392.518494,78.212402 393.388641,75.928352 394.002258,73.606125   C395.650879,67.367188 401.117432,64.117516 407.310089,65.693985   C409.623291,66.282867 412.012817,66.699959 412.722198,63.565823   C413.336029,60.853817 413.828583,58.042423 409.973450,57.000858   C401.553833,54.726067 394.279602,56.327515 387.925049,63.616119  M1050.195312,57.272148   C1049.843750,57.623363 1049.546997,58.067879 1049.132324,58.311977   C1041.422241,62.851715 1038.174072,70.099327 1039.203003,78.425591   C1040.421509,88.287003 1044.268188,93.686638 1055.393311,96.737785   C1064.091797,99.123398 1074.401855,94.571854 1078.930908,86.114197   C1082.528687,79.395592 1082.281860,68.501427 1075.395264,61.801003   C1068.183472,54.784264 1059.996582,54.046925 1050.195312,57.272148  z"/>
<path fill="#FEFEFE" opacity="1.000000" stroke="none" d=" M804.641663,169.988831   C793.175232,173.467255 782.481628,171.769226 772.059998,167.530426   C764.610718,164.500610 760.479065,158.260010 757.382202,151.213470   C762.302795,148.647903 766.063599,149.505447 769.599915,154.097366   C776.957031,163.650665 796.360168,166.217514 807.761047,157.846252   C815.773132,151.963226 815.291809,143.862427 814.862366,135.595688   C806.013733,144.367065 795.825256,147.804703 783.309448,145.152008   C770.168701,142.366867 761.695862,135.116425 757.727844,122.296028   C752.958740,106.887611 760.416687,91.581573 772.873047,83.494888   C785.504761,75.294395 807.200317,78.031906 817.464905,89.940178   C822.045227,95.253906 824.720154,101.425552 824.928040,108.372665   C825.212036,117.862350 824.843689,127.369965 825.028870,136.864563   C825.327209,152.163254 819.426819,163.591141 804.641663,169.988831  M781.098389,135.618713   C786.857788,135.787491 792.675781,136.533310 798.359314,135.955597   C803.582764,135.424667 807.939148,132.536606 811.063660,127.903191   C815.358643,121.534309 816.494690,115.006927 815.193176,107.288261   C813.371277,96.483719 802.097839,88.253143 792.674744,87.940071   C779.656677,87.507576 767.989746,96.001732 766.080505,110.221710   C764.761597,120.044586 770.273499,132.207336 781.098389,135.618713  z"/>
<path fill="#FEFEFE" opacity="1.000000" stroke="none" d=" M275.825653,92.527588   C280.657959,82.417747 285.304474,72.628708 290.038452,62.882164   C290.875244,61.159348 292.077148,59.613861 293.897125,56.747551   C308.170563,87.203186 321.990631,116.691444 336.009705,146.604324   C332.892853,146.934189 329.799225,147.261581 325.774292,147.687546   C321.393738,138.485291 316.746918,128.723724 311.929291,118.603363   C299.825134,118.603363 287.316528,118.603363 274.733154,118.603363   C270.718201,126.852219 266.734131,134.668716 263.095764,142.642929   C260.681702,147.933762 255.496674,149.694519 250.186996,146.603333   C255.108566,136.506561 260.069855,126.432823 264.931732,116.311333   C267.490234,110.985077 269.877808,105.576668 272.336853,100.202736   C273.454926,97.759384 274.559143,95.309685 275.825653,92.527588  M306.518494,108.062210   C302.222473,98.452164 297.926453,88.842125 293.596405,79.156044   C288.743011,89.106010 283.953217,98.925522 279.040070,108.997925   C287.716797,108.997925 295.874115,109.000755 304.031433,108.993614   C304.862213,108.992882 305.692932,108.932190 306.518494,108.062210  z"/>
<path fill="#FEFEFE" opacity="1.000000" stroke="none" d=" M1032.000977,98.075089   C1031.667725,105.960884 1031.842896,113.424011 1030.882690,120.738091   C1029.412109,131.939468 1023.145874,140.805603 1013.263428,145.615097   C1003.651917,150.292755 993.218811,149.626648 984.391296,142.660492   C978.249023,137.813416 974.826416,130.710342 973.198547,123.311195   C971.632141,116.190895 970.863037,108.682930 971.182251,101.408409   C971.696716,89.683281 972.594727,77.734383 980.052673,67.795532   C990.353638,54.067871 1010.924988,53.268524 1022.177917,67.416679   C1029.309692,76.383316 1031.897949,86.498512 1032.000977,98.075089  M982.905212,122.416130   C985.882751,132.792633 992.127808,137.822189 1000.251282,139.010910   C1010.572144,140.521164 1017.773926,131.004028 1019.911377,123.421486   C1021.086670,119.252289 1021.435791,114.849609 1022.148621,110.550735   C1024.260864,97.811905 1022.669067,85.673599 1015.824158,74.559349   C1012.681702,69.456764 1003.643555,65.766701 998.730164,67.103577   C990.140808,69.440590 982.478271,77.856972 982.127930,86.916191   C981.678711,98.532478 982.196106,110.186127 982.905212,122.416130  z"/>
<path fill="#FEFEFE" opacity="1.000000" stroke="none" d=" M445.579834,80.152832   C455.573944,78.287552 464.991547,77.968788 473.909882,82.971092   C482.677917,87.889099 487.910034,95.537003 489.875153,105.069466   C491.904205,114.912285 491.466339,115.002388 481.205627,115.001991   C472.381561,115.001648 463.557495,115.001678 454.733429,115.001617   C447.615601,115.001564 440.497772,115.001610 433.311737,115.001610   C432.087372,124.644173 438.382355,134.749176 450.049530,138.286133   C459.435944,141.131668 472.095367,138.879288 480.684753,124.031403   C481.141541,124.031403 481.703400,123.874458 482.118988,124.054749   C489.317017,127.177277 489.284943,127.304214 485.022797,133.958618   C477.642090,145.481903 461.430573,150.339325 447.246368,146.803085   C435.047943,143.761932 425.096985,130.352539 423.772766,118.975914   C422.237732,105.787689 425.800201,95.051788 435.371948,86.296570   C438.150024,83.755531 441.886017,82.261749 445.579834,80.152832  M434.989410,102.728775   C434.699799,104.052826 434.410187,105.376877 434.213684,106.275131   C449.571747,106.275131 464.696381,106.275131 480.362457,106.275131   C478.685486,99.938362 476.013885,94.964195 471.162994,92.123558   C458.300812,84.591583 442.815277,86.314690 434.989410,102.728775  z"/>
<path fill="#FEFEFE" opacity="1.000000" stroke="none" d=" M133.876984,131.387146   C134.420135,132.258041 134.891144,132.797089 134.959869,133.383301   C135.594757,138.798599 139.244766,141.089325 143.891724,138.536362   C153.297516,133.368988 162.527542,127.882896 171.888641,122.632698   C179.667328,118.270012 187.529938,114.056931 195.998886,109.425674   C195.998886,122.853134 196.168030,135.470062 195.831390,148.073471   C195.775665,150.159683 193.996201,152.963409 192.177948,154.104950   C184.860077,158.699249 177.188660,162.726898 169.699921,167.054001   C165.612198,169.415939 161.984482,169.568680 158.265976,166.112137   C156.587372,164.551804 154.127274,163.832169 151.472321,162.443787   C158.640228,158.462830 165.276550,154.548889 172.116165,151.030060   C183.356277,145.247299 183.726959,144.777802 182.353195,131.823654   C171.343155,137.910843 160.443573,143.954132 149.524353,149.961700   C146.851807,151.432083 144.192047,153.696869 141.385788,153.934296   C138.627625,154.167648 135.295212,152.850082 132.935257,151.189316   C130.170853,149.243896 128.055710,148.305710 124.342628,148.618820   C121.073021,148.894547 116.704369,146.714386 114.304260,144.201889   C110.854156,140.590225 110.980370,135.361115 113.608391,131.074295   C115.845993,127.424332 119.544556,125.367218 124.113434,125.656914   C128.151779,125.912979 131.904480,126.721138 133.876984,131.387146  M129.005280,135.715424   C128.141327,131.267944 124.654839,131.384628 121.689240,132.254135   C118.234489,133.267075 118.369797,136.900024 119.228470,139.378799   C119.776909,140.962006 122.681068,142.974808 124.170883,142.717896   C126.970039,142.235214 129.703918,140.392456 129.005280,135.715424  z"/>
<path fill="#FEFEFE" opacity="1.000000" stroke="none" d=" M139.876984,190.985992   C134.570114,193.674271 129.524704,196.150833 124.761978,199.086090   C121.237000,201.258514 118.276009,200.557098 115.100426,198.611359   C108.388939,194.499100 101.427231,190.755859 94.987595,186.260406   C92.699051,184.662811 90.959564,181.509781 90.181877,178.727844   C89.364388,175.803558 89.998856,172.473373 89.998856,168.133835   C94.276421,170.688980 97.924995,172.780197 101.482346,175.016541   C105.571709,177.587326 109.428902,180.564529 113.657730,182.868118   C120.909981,186.818619 124.305183,186.134857 131.481461,179.720932   C120.964539,173.315643 110.625305,167.002136 100.265694,160.722275   C98.072578,159.392838 95.698837,158.339539 93.598389,156.884598   C90.926361,155.033752 89.193954,152.897446 90.344223,149.043564   C91.399582,145.507645 92.017029,142.020294 88.496620,138.508484   C85.974617,135.992661 84.101173,131.700867 86.780945,127.617889   C91.720482,120.091866 94.954956,118.426331 101.223450,120.000847   C104.690361,120.871674 110.348328,126.936676 109.791084,130.504013   C109.278015,133.788544 107.682755,137.417236 105.410583,139.789261   C102.278214,143.059311 102.980125,145.910172 105.608345,147.915436   C111.223000,152.199280 117.268059,155.943329 123.282608,159.673416   C134.200928,166.444687 145.228638,173.039474 156.193222,179.736542   C156.566757,179.964691 156.752167,180.500870 157.099106,180.999649   C151.428665,184.357391 145.844193,187.664230 139.876984,190.985992  M95.119514,126.353027   C92.274635,128.899567 91.913132,132.090744 94.071472,134.899078   C96.099632,137.538040 99.270119,138.220627 101.490631,135.052200   C102.602188,133.466156 103.238899,130.882004 102.823990,129.033508   C102.023254,125.466072 98.737839,125.876541 95.119514,126.353027  z"/>
<path fill="#FEFEFE" opacity="1.000000" stroke="none" d=" M36.000610,90.998726   C36.334457,86.139359 37.474449,81.600609 36.791397,77.355164   C35.962162,72.201111 38.138130,69.560150 42.040844,67.468742   C49.756443,63.334061 57.564602,59.370281 65.241455,55.165962   C68.664665,53.291203 71.312508,54.029400 74.076309,56.459328   C76.115540,58.252213 78.526955,59.621777 81.231018,61.498085   C73.420822,65.488777 66.117813,69.585899 58.507206,72.996643   C52.089523,75.872780 48.559620,79.897606 49.975834,87.224998   C50.161949,88.187943 50.001377,89.217896 50.001377,90.714005   C58.104141,86.604744 65.993431,82.649231 73.839363,78.609512   C79.529465,75.679794 85.037910,72.349586 90.899010,69.829842   C92.574593,69.109497 95.437012,70.149612 97.331322,71.169678   C100.267822,72.750946 102.081566,74.814186 106.405624,72.677689   C110.312050,70.747551 114.541473,74.394730 117.416466,77.923744   C119.922142,80.999420 120.858986,84.383865 119.252739,88.250763   C117.548416,92.353767 115.334732,95.763443 110.291183,96.007408   C101.543350,96.430550 101.377327,95.918648 96.785820,86.857300   C94.962196,83.258354 90.677956,84.438316 87.595917,85.936256   C79.952660,89.651085 72.436852,93.632484 64.919640,97.601112   C56.576622,102.005730 48.333450,106.601288 39.952927,110.932030   C37.000465,112.457748 35.159512,112.599487 35.826740,107.842201   C36.579453,102.475433 35.999294,96.921730 36.000610,90.998726  M113.549644,85.964378   C114.792183,82.025887 112.197273,79.883041 109.251610,79.304222   C107.422203,78.944748 103.487000,80.759315 103.386627,81.861282   C103.153320,84.422783 103.886276,88.317108 105.671844,89.510574   C108.038612,91.092514 111.809311,90.677948 113.549644,85.964378  z"/>
<path fill="#FEFEFE" opacity="1.000000" stroke="none" d=" M86.679047,49.255634   C82.982414,46.923954 79.585938,44.814022 75.878235,42.510761   C87.578712,36.554661 98.928513,30.505156 110.571060,25.084389   C112.846001,24.025177 116.774643,24.509066 119.048409,25.823952   C126.560349,30.168009 133.629181,35.272259 140.938461,39.975349   C144.619843,42.344101 145.041489,50.208229 142.697571,56.780640   C136.047699,52.501095 129.420471,48.249901 122.807335,43.976929   C113.353508,37.868507 111.351677,37.893322 102.369034,44.281418   C114.905487,52.521137 127.500046,60.697910 139.925262,69.124390   C141.147888,69.953552 141.785675,72.281036 141.909332,73.970558   C142.228073,78.325081 141.257675,82.699837 144.964676,86.455330   C149.340958,90.888847 146.506607,99.115860 142.846146,102.008957   C137.435974,106.284927 131.741089,105.149666 127.080078,101.454353   C122.743996,98.016678 122.451736,89.793823 127.244331,84.747009   C131.125275,80.660210 128.591202,77.919479 126.205490,75.958969   C120.866005,71.571121 114.939606,67.885345 109.172363,64.033211   C101.815857,59.119568 94.380539,54.323902 86.679047,49.255634  M140.998215,93.316994   C140.565567,91.969978 140.404953,90.440132 139.646667,89.311996   C137.756500,86.499878 134.953262,87.073120 132.502594,88.235588   C129.363388,89.724670 129.198029,92.974930 130.393066,95.407455   C131.212723,97.075851 134.149002,99.012955 135.692596,98.690735   C137.687485,98.274307 139.237198,95.725151 140.998215,93.316994  z"/>
<path fill="#FEFEFE" opacity="1.000000" stroke="none" d=" M53.726784,138.605865   C51.023155,149.115158 54.250656,156.185745 65.005676,159.316284   C65.005676,146.530579 65.206879,133.506180 64.904503,120.493462   C64.787109,115.441650 66.825920,110.176857 71.662743,108.128510   C75.581970,106.468742 78.275703,104.436264 79.644241,100.031464   C81.289062,94.737404 88.637810,92.089577 94.075035,94.025330   C98.458389,95.585892 102.791039,102.419228 101.894356,106.357727   C100.246033,113.597672 93.868294,118.771828 87.386879,116.780846   C81.877731,115.088524 80.573044,118.544098 79.243324,121.786385   C78.173798,124.394211 78.118378,127.513702 78.042488,130.417389   C77.622520,146.485306 77.342125,162.556854 76.979462,178.626373   C76.958961,179.534698 76.632896,180.436127 76.293488,182.106201   C71.293617,179.102524 66.722786,176.375641 62.171097,173.617157   C56.928871,170.440170 51.755112,167.146591 46.456665,164.067017   C40.967384,160.876480 39.649532,157.629425 40.777714,151.291595   C41.254475,148.613251 40.471046,145.734650 40.534367,142.953308   C40.645023,138.092590 40.547924,133.170334 41.303188,128.394897   C42.337597,121.854485 48.265682,120.361046 53.962505,117.591095   C53.962505,124.820007 53.962505,131.512070 53.726784,138.605865  M84.999771,107.178520   C86.579346,108.452057 88.571037,111.050804 89.650215,110.715202   C91.712120,110.074005 93.801628,108.036354 94.804230,106.038582   C95.392799,104.865791 94.416634,101.896263 93.228760,101.098969   C91.737801,100.098244 88.679802,99.623505 87.448807,100.513451   C85.991905,101.566734 85.762207,104.317474 84.999771,107.178520  z"/>
<path fill="#FEFEFE" opacity="1.000000" stroke="none" d=" M183.615234,58.225266   C190.352600,61.489506 190.342514,67.123573 190.054428,73.074615   C189.788956,78.558281 189.686798,84.085663 190.061127,89.556267   C190.653671,98.216286 187.808853,100.395615 176.998337,104.068748   C176.998337,98.305748 176.999435,92.741119 176.998016,87.176491   C176.996780,82.317795 177.632675,77.335762 176.729721,72.650536   C176.252014,70.171761 173.290436,67.980225 171.079712,66.093048   C169.562668,64.798035 167.407883,64.250092 164.998062,63.113461   C164.998062,77.335289 164.621567,91.216385 165.174606,105.060349   C165.411530,110.990990 163.334808,114.204170 158.243561,116.365829   C156.015854,117.311691 154.110611,118.299606 153.561279,121.572441   C152.782150,126.214378 146.717712,130.185837 142.529480,130.000015   C137.830612,129.791519 132.165741,125.148140 130.818390,120.400650   C129.166580,114.580353 134.766083,107.066742 140.805130,107.000076   C151.552887,106.881424 152.999222,105.380898 152.999115,94.350044   C152.998962,81.358513 153.103424,68.365685 152.942505,55.376148   C152.885895,50.805866 152.179230,46.243637 151.682098,40.705601   C162.687134,46.736816 172.988312,52.382294 183.615234,58.225266  M147.753387,115.223907   C147.029877,114.540932 146.394608,113.716721 145.567307,113.199883   C142.308105,111.163780 139.902756,112.978371 138.016373,115.360878   C135.907227,118.024712 136.807983,120.541458 139.565262,122.108940   C141.107285,122.985550 143.431152,124.070816 144.712326,123.503365   C147.677261,122.190125 148.547821,119.233498 147.753387,115.223907  z"/>
<path fill="#FEFEFE" opacity="1.000000" stroke="none" d=" M860.999634,99.115761   C860.186035,94.425903 863.625916,94.878906 865.997925,93.965477   C869.831360,92.489357 873.948730,91.320511 877.271851,89.039520   C884.003601,84.418724 881.905579,72.748001 873.089355,68.848785   C861.881531,63.891781 852.842041,70.642693 849.627319,80.821671   C846.520020,80.821671 843.393127,80.821671 840.270142,80.821671   C840.274353,70.170876 850.109619,60.582584 858.517761,58.014477   C867.527344,55.262699 875.652283,58.112461 882.786194,63.099247   C894.627197,71.376434 894.001892,90.986870 882.191345,97.370110   C881.782898,97.590843 881.527588,98.094757 881.190125,98.478981   C889.041138,102.072800 894.321350,107.926003 895.923828,116.390785   C898.008057,127.400230 892.767456,135.743240 884.857666,142.574341   C875.724426,150.461960 853.902649,150.333801 845.903992,141.138748   C841.045227,135.553207 838.133850,129.585663 836.773376,122.228531   C840.214478,122.228531 843.325134,122.228531 846.448181,122.228531   C849.836426,138.533585 865.651489,143.525589 879.313110,134.620575   C884.254883,131.399368 888.174988,125.416740 886.825439,118.739899   C885.604126,112.697533 881.942505,107.732254 875.441895,106.047607   C870.935852,104.879868 866.316040,104.151314 861.195801,103.114944   C861.158142,102.434883 861.079041,101.006187 860.999634,99.115761  z"/>
<path fill="#FEFEFE" opacity="1.000000" stroke="none" d=" M943.733398,75.764511   C939.439636,82.108513 935.408875,88.192451 930.899719,94.998528   C933.879150,94.998528 936.734131,95.187393 939.556885,94.965645   C951.417725,94.033905 962.517212,106.650299 963.146912,118.390366   C963.879211,132.044556 957.389526,142.443710 943.070129,147.500534   C933.943237,150.723679 919.811035,146.220657 913.970642,138.208771   C905.270447,126.273811 907.217834,111.948532 915.933289,98.707932   C924.715027,85.366646 934.118469,72.434578 943.249146,59.322979   C944.513062,57.507950 945.928528,56.740944 947.920532,58.418335   C949.632996,59.860340 951.446167,61.182686 953.262207,62.594730   C950.014954,67.119026 947.005737,71.311737 943.733398,75.764511  M918.000854,124.087418   C919.706604,130.512650 923.407837,135.291321 929.636169,137.852707   C936.462097,140.659897 942.253418,138.186478 947.514709,133.925629   C952.613220,129.796600 954.844421,121.174690 952.599487,115.105202   C950.313354,108.924416 942.873718,103.196266 936.879883,103.001747   C925.388306,102.628830 918.002319,110.533554 918.000854,124.087418  z"/>
<path fill="#FEFEFE" opacity="1.000000" stroke="none" d=" M679.149536,127.426178   C678.346619,122.412964 677.257690,117.799309 677.076538,113.150291   C676.445923,96.961624 687.589417,82.268661 703.421387,79.427330   C720.094116,76.435104 736.164734,82.316399 742.903625,100.625999   C749.371582,118.199577 743.030212,135.147934 727.229553,144.055649   C714.318420,151.334305 693.907776,149.261581 684.671692,135.249527   C682.987732,132.694824 681.082764,130.285797 679.149536,127.426178  M735.045166,109.384514   C733.954895,94.990097 716.201965,82.709663 700.874634,90.593239   C691.046692,95.648224 686.630615,103.394844 686.827881,114.698448   C687.052734,127.578888 698.334290,139.632721 711.470764,138.853943   C727.054138,137.930099 736.414917,126.618958 735.045166,109.384514  z"/>
<path fill="#FEFEFE" opacity="1.000000" stroke="none" d=" M555.482178,144.828125   C545.536011,147.968826 535.916382,149.468445 526.102783,146.006378   C513.548523,141.577454 505.373047,133.471542 503.050385,119.910080   C501.292267,109.644928 503.127777,100.066010 510.022980,91.889229   C516.365051,84.368385 524.381348,79.734886 534.272583,79.064056   C542.937866,78.476349 551.646545,78.683449 559.098022,84.039818   C562.857666,86.742393 566.196106,90.030815 570.279114,93.529030   C567.535217,95.701057 565.938965,97.357994 563.999268,98.328209   C563.078979,98.788521 560.844116,98.382057 560.325562,97.612770   C554.859253,89.503860 546.630737,87.490921 537.786438,87.773270   C525.187195,88.175514 516.353027,94.252365 512.758118,106.762337   C509.611176,117.713554 515.685974,132.589890 528.202271,137.055450   C541.544922,141.815842 552.326843,138.164429 561.649658,127.866760   C564.076294,129.057281 566.473328,130.233276 569.462646,131.699829   C566.510986,137.869156 561.120728,141.213181 555.482178,144.828125  z"/>
<path fill="#FFFFFE" opacity="1.000000" stroke="none" d=" M634.999207,108.000000   C634.999207,118.145760 634.999207,127.791512 634.999207,138.000702   C644.912598,138.000702 654.671814,138.168442 664.420410,137.919235   C668.394775,137.817627 669.124390,139.480652 669.092102,142.961563   C669.060852,146.329651 668.579224,148.168274 664.501648,148.084503   C652.857727,147.845276 641.205566,148.031082 629.556946,147.987137   C624.198608,147.966934 623.842163,147.391373 624.871521,142.182449   C625.156738,140.739441 624.994873,139.203064 624.995239,137.709534   C625.000793,113.246986 624.999512,88.784431 624.999695,64.321884   C624.999695,62.685005 624.999695,61.048126 624.999695,59.563881   C625.599060,59.287228 625.870239,59.055515 626.145630,59.050407   C634.992920,58.886402 634.994446,58.889690 634.995911,67.561096   C634.998169,80.874062 634.998230,94.187035 634.999207,108.000000  z"/>
<path fill="#FEFEFE" opacity="1.000000" stroke="none" d=" M590.000366,102.088608   C590.000793,109.906898 589.985718,117.236794 590.005249,124.566605   C590.033142,135.056778 595.958740,139.604370 606.471069,138.253403   C611.033936,137.667023 610.023621,142.508865 611.314392,145.201691   C603.303345,148.800400 595.579712,149.477020 588.782898,143.875641   C582.756531,138.909210 580.232300,131.618881 580.118286,124.090454   C579.783020,101.949455 579.998718,79.800117 579.998718,57.558479   C581.266235,57.057774 582.394958,56.474087 583.594238,56.162354   C588.415100,54.909340 589.984314,56.128403 589.994690,61.093830   C590.013123,69.892921 589.999878,78.692078 589.999878,87.889061   C595.007141,87.889061 599.758179,87.889061 604.747314,87.889061   C604.747314,90.682938 604.747314,93.087730 604.747314,95.894073   C600.003479,95.894073 595.248047,95.894073 590.000244,95.894073   C590.000244,98.052155 590.000244,99.826164 590.000366,102.088608  z"/>
<path fill="#FEFEFE" opacity="1.000000" stroke="none" d=" M343.999207,74.399467   C346.741272,60.771091 356.197327,53.517136 368.762299,56.998226   C375.233185,58.790974 375.190094,59.111790 371.550049,66.680969   C362.729645,63.786579 357.550842,64.937477 355.625122,71.013435   C353.950409,76.297356 353.321442,81.912720 352.124512,87.912056   C355.988953,87.912056 358.681824,88.307465 361.213165,87.835899   C368.060974,86.560211 368.033844,86.414528 367.994537,93.009026   C367.989685,93.824944 367.993896,94.640907 367.993896,95.840340   C363.079193,95.840340 358.320404,95.840340 353.168274,95.840340   C353.168274,113.287834 353.168274,130.360367 353.168274,147.183029   C352.519165,147.612610 352.263062,147.929565 352.002228,147.933487   C341.275787,148.094467 343.052704,148.601578 343.036163,139.459290   C343.026245,133.964432 343.511292,128.468613 343.498962,122.973854   C343.481567,115.211334 343.018585,107.447403 343.099121,99.687737   C343.185059,91.407692 343.681824,83.131920 343.999207,74.399467  z"/>
<path fill="#FEFEFE" opacity="1.000000" stroke="none" d=" M388.170715,63.335854   C394.279602,56.327515 401.553833,54.726067 409.973450,57.000858   C413.828583,58.042423 413.336029,60.853817 412.722198,63.565823   C412.012817,66.699959 409.623291,66.282867 407.310089,65.693985   C401.117432,64.117516 395.650879,67.367188 394.002258,73.606125   C393.388641,75.928352 392.518494,78.212402 392.193542,80.572807   C391.882233,82.833900 392.126343,85.171463 392.126343,87.839073   C397.257233,87.839073 402.330627,87.839073 407.325348,87.839073   C408.835571,95.656952 408.554535,96.000786 401.021881,96.001068   C398.208221,96.001167 395.394562,96.001076 392.183746,96.001076   C392.183746,113.269669 392.183746,130.343170 392.183746,147.707001   C389.060638,147.707001 386.321564,147.707001 383.218628,147.707001   C383.149628,146.390594 383.009399,144.951004 383.008423,143.511322   C382.994629,122.849052 383.045410,102.186615 382.973145,81.524597   C382.950500,75.049255 384.193909,69.010956 388.170715,63.335854  z"/>
<path fill="#FDFDFD" opacity="1.000000" stroke="none" d=" M1050.577148,57.144077   C1059.996582,54.046925 1068.183472,54.784264 1075.395264,61.801003   C1082.281860,68.501427 1082.528687,79.395592 1078.930908,86.114197   C1074.401855,94.571854 1064.091797,99.123398 1055.393311,96.737785   C1044.268188,93.686638 1040.421509,88.287003 1039.203003,78.425591   C1038.174072,70.099327 1041.422241,62.851715 1049.132324,58.311977   C1049.546997,58.067879 1049.843750,57.623363 1050.577148,57.144077  M1066.395996,64.896866   C1064.773560,64.264908 1063.199829,63.316650 1061.519897,63.058109   C1055.608276,62.148312 1050.811890,64.955345 1048.945557,70.011063   C1047.556152,73.775063 1047.916382,78.829285 1049.179688,82.769508   C1050.863281,88.020569 1059.209961,91.661446 1063.398193,89.831207   C1075.221924,84.664322 1076.339722,71.684692 1066.395996,64.896866  z"/>
<path fill="#000000" opacity="1.000000" stroke="none" d=" M780.800110,135.337036   C770.273499,132.207336 764.761597,120.044586 766.080505,110.221710   C767.989746,96.001732 779.656677,87.507576 792.674744,87.940071   C802.097839,88.253143 813.371277,96.483719 815.193176,107.288261   C816.494690,115.006927 815.358643,121.534309 811.063660,127.903191   C807.939148,132.536606 803.582764,135.424667 798.359314,135.955597   C792.675781,136.533310 786.857788,135.787491 780.800110,135.337036  z"/>
<path fill="#000000" opacity="1.000000" stroke="none" d=" M306.521088,108.480766   C305.692932,108.932190 304.862213,108.992882 304.031433,108.993614   C295.874115,109.000755 287.716797,108.997925 279.040070,108.997925   C283.953217,98.925522 288.743011,89.106010 293.596405,79.156044   C297.926453,88.842125 302.222473,98.452164 306.521088,108.480766  z"/>
<path fill="#000000" opacity="1.000000" stroke="none" d=" M982.601074,122.119904   C982.196106,110.186127 981.678711,98.532478 982.127930,86.916191   C982.478271,77.856972 990.140808,69.440590 998.730164,67.103577   C1003.643555,65.766701 1012.681702,69.456764 1015.824158,74.559349   C1022.669067,85.673599 1024.260864,97.811905 1022.148621,110.550735   C1021.435791,114.849609 1021.086670,119.252289 1019.911377,123.421486   C1017.773926,131.004028 1010.572144,140.521164 1000.251282,139.010910   C992.127808,137.822189 985.882751,132.792633 982.601074,122.119904  z"/>
<path fill="#000000" opacity="1.000000" stroke="none" d=" M435.002075,102.320175   C442.815277,86.314690 458.300812,84.591583 471.162994,92.123558   C476.013885,94.964195 478.685486,99.938362 480.362457,106.275131   C464.696381,106.275131 449.571747,106.275131 434.213684,106.275131   C434.410187,105.376877 434.699799,104.052826 435.002075,102.320175  z"/>
<path fill="#000000" opacity="1.000000" stroke="none" d=" M129.002335,136.126587   C129.703918,140.392456 126.970039,142.235214 124.170883,142.717896   C122.681068,142.974808 119.776909,140.962006 119.228470,139.378799   C118.369797,136.900024 118.234489,133.267075 121.689240,132.254135   C124.654839,131.384628 128.141327,131.267944 129.002335,136.126587  z"/>
<path fill="#000000" opacity="1.000000" stroke="none" d=" M95.509460,126.189613   C98.737839,125.876541 102.023254,125.466072 102.823990,129.033508   C103.238899,130.882004 102.602188,133.466156 101.490631,135.052200   C99.270119,138.220627 96.099632,137.538040 94.071472,134.899078   C91.913132,132.090744 92.274635,128.899567 95.509460,126.189613  z"/>
<path fill="#000000" opacity="1.000000" stroke="none" d=" M113.293472,86.269852   C111.809311,90.677948 108.038612,91.092514 105.671844,89.510574   C103.886276,88.317108 103.153320,84.422783 103.386627,81.861282   C103.487000,80.759315 107.422203,78.944748 109.251610,79.304222   C112.197273,79.883041 114.792183,82.025887 113.293472,86.269852  z"/>
<path fill="#000000" opacity="1.000000" stroke="none" d=" M140.988403,93.705666   C139.237198,95.725151 137.687485,98.274307 135.692596,98.690735   C134.149002,99.012955 131.212723,97.075851 130.393066,95.407455   C129.198029,92.974930 129.363388,89.724670 132.502594,88.235588   C134.953262,87.073120 137.756500,86.499878 139.646667,89.311996   C140.404953,90.440132 140.565567,91.969978 140.988403,93.705666  z"/>
<path fill="#000000" opacity="1.000000" stroke="none" d=" M85.000168,106.755486   C85.762207,104.317474 85.991905,101.566734 87.448807,100.513451   C88.679802,99.623505 91.737801,100.098244 93.228760,101.098969   C94.416634,101.896263 95.392799,104.865791 94.804230,106.038582   C93.801628,108.036354 91.712120,110.074005 89.650215,110.715202   C88.571037,111.050804 86.579346,108.452057 85.000168,106.755486  z"/>
<path fill="#000000" opacity="1.000000" stroke="none" d=" M147.867584,115.609337   C148.547821,119.233498 147.677261,122.190125 144.712326,123.503365   C143.431152,124.070816 141.107285,122.985550 139.565262,122.108940   C136.807983,120.541458 135.907227,118.024712 138.016373,115.360878   C139.902756,112.978371 142.308105,111.163780 145.567307,113.199883   C146.394608,113.716721 147.029877,114.540932 147.867584,115.609337  z"/>
<path fill="#000000" opacity="1.000000" stroke="none" d=" M918.000854,123.647041   C918.002319,110.533554 925.388306,102.628830 936.879883,103.001747   C942.873718,103.196266 950.313354,108.924416 952.599487,115.105202   C954.844421,121.174690 952.613220,129.796600 947.514709,133.925629   C942.253418,138.186478 936.462097,140.659897 929.636169,137.852707   C923.407837,135.291321 919.706604,130.512650 918.000854,123.647041  z"/>
<path fill="#000000" opacity="1.000000" stroke="none" d=" M735.309387,109.721756   C736.414917,126.618958 727.054138,137.930099 711.470764,138.853943   C698.334290,139.632721 687.052734,127.578888 686.827881,114.698448   C686.630615,103.394844 691.046692,95.648224 700.874634,90.593239   C716.201965,82.709663 733.954895,94.990097 735.309387,109.721756  z"/>
<path fill="#000000" opacity="1.000000" stroke="none" d=" M1066.786377,64.955170   C1076.339722,71.684692 1075.221924,84.664322 1063.398193,89.831207   C1059.209961,91.661446 1050.863281,88.020569 1049.179688,82.769508   C1047.916382,78.829285 1047.556152,73.775063 1048.945557,70.011063   C1050.811890,64.955345 1055.608276,62.148312 1061.519897,63.058109   C1063.199829,63.316650 1064.773560,64.264908 1066.786377,64.955170  z"/>
</svg>