<?xml version="1.0" encoding="UTF-8"?>
<svg version="1.1" xmlns="http://www.w3.org/2000/svg" width="256" height="254">
<path d="M0 0 C84.48 0 168.96 0 256 0 C256 83.82 256 167.64 256 254 C171.52 254 87.04 254 0 254 C0 170.18 0 86.36 0 0 Z " fill="#101010" transform="translate(0,0)"/>
<path d="M0 0 C3.37134399 2.05921942 6.21890316 4.43780633 8 8 C8.5259826 11.75701858 8.82762888 15.42750513 7.0234375 18.85546875 C4.71153988 21.7276115 2.42474202 23.70284107 -1 25 C-4.09550367 25.09556589 -7.13052586 24.93405246 -10.22265625 24.77734375 C-12.9720079 24.77338573 -12.9720079 24.77338573 -14.80859375 26.19140625 C-17.30611006 29.98271789 -17.15258208 34.57997802 -17.28125 38.99609375 C-17.31798828 40.18082275 -17.35472656 41.36555176 -17.39257812 42.58618164 C-17.42802734 43.8571167 -17.46347656 45.12805176 -17.5 46.4375 C-17.56203874 48.4432962 -17.62408214 50.44909226 -17.68640137 52.45487976 C-17.79446947 55.96981547 -17.8970703 59.48491068 -18 63 C-18.12283412 67.19483332 -18.24662789 71.38962037 -18.37695312 75.58422852 C-18.45767186 78.19397421 -18.53462374 80.80383971 -18.60742188 83.41381836 C-18.64416016 84.59854736 -18.68089844 85.78327637 -18.71875 87.00390625 C-18.74904297 88.04361572 -18.77933594 89.0833252 -18.81054688 90.15454102 C-18.99025972 92.85370756 -19.40188471 95.36508419 -20 98 C-23.48877591 97.34196926 -26.02253801 95.93895779 -29.03515625 94.0859375 C-30.49791992 93.19068359 -30.49791992 93.19068359 -31.99023438 92.27734375 C-33.00408203 91.64957031 -34.01792969 91.02179688 -35.0625 90.375 C-36.54266602 89.46814453 -36.54266602 89.46814453 -38.05273438 88.54296875 C-43.09395299 85.44626734 -48.11410504 82.31579402 -53.12109375 79.1640625 C-54.01111084 78.60412598 -54.90112793 78.04418945 -55.81811523 77.46728516 C-58 76 -58 76 -60 74 C-60.17801003 70.98589795 -60.233939 68.0751249 -60.1875 65.0625 C-60.1774292 64.17820312 -60.1673584 63.29390625 -60.15698242 62.3828125 C-60.13015231 60.52610285 -60.09689091 58.66947641 -60.05761719 56.81298828 C-60.01971607 54.96257873 -59.99145033 53.11194237 -59.97363281 51.26123047 C-59.94619224 48.67282795 -59.88457879 46.087502 -59.8125 43.5 C-59.80694092 42.70601807 -59.80138184 41.91203613 -59.7956543 41.09399414 C-59.64333896 37.22652722 -59.38868939 35.40031133 -56.6484375 32.578125 C-48.96534653 28 -48.96534653 28 -46 28 C-46.01571045 29.06436279 -46.0314209 30.12872559 -46.04760742 31.2253418 C-46.10203054 35.18555086 -46.13639493 39.14572704 -46.16479492 43.10620117 C-46.1798534 44.81817184 -46.20030455 46.53010411 -46.22631836 48.24194336 C-46.2628319 50.70696505 -46.27975562 53.17147535 -46.29296875 55.63671875 C-46.30845261 56.39836838 -46.32393646 57.16001801 -46.33988953 57.94474792 C-46.34132184 62.49827608 -45.96304848 65.47702395 -43 69 C-40.31903846 70.86642222 -40.31903846 70.86642222 -37.3125 72.3125 C-36.31863281 72.82425781 -35.32476562 73.33601563 -34.30078125 73.86328125 C-33.54152344 74.23839844 -32.78226563 74.61351562 -32 75 C-32.00785522 73.71875244 -32.00785522 73.71875244 -32.01586914 72.41162109 C-32.06784482 62.60729806 -32.06014709 52.80427071 -32 43 C-31.99419922 41.81390137 -31.98839844 40.62780273 -31.98242188 39.40576172 C-31.95511348 36.37316418 -31.89222386 33.34411159 -31.8125 30.3125 C-31.80677979 29.43062012 -31.80105957 28.54874023 -31.79516602 27.64013672 C-31.64187174 23.35384184 -31.40174537 21.52014733 -28.70703125 18.03125 C-26.38557288 16.28931875 -24.56748643 15.17474503 -21.875 14.1875 C-19.42771625 13.06887216 -18.27244589 12.53061034 -17.03125 10.11328125 C-16.59650356 8.71329421 -16.16930976 7.31093769 -15.75 5.90625 C-13.25825476 -0.42693583 -5.88256469 -1.38653171 0 0 Z " fill="#F4F4F4" transform="translate(102,106)"/>
<path d="M0 0 C0.17786517 6.29839736 0.30022795 12.59614484 0.38452148 18.89648438 C0.41966826 21.03833211 0.46739686 23.18001256 0.52807617 25.32128906 C0.61324978 28.40471677 0.65274576 31.48592088 0.68359375 34.5703125 C0.71972275 35.52366486 0.75585175 36.47701721 0.79307556 37.45925903 C0.79689542 43.96501951 0.79689542 43.96501951 -1.46006775 46.89628601 C-3.23082769 48.45534059 -5.00063384 49.7513903 -7 51 C-7.73532959 51.47123291 -8.47065918 51.94246582 -9.22827148 52.42797852 C-9.85290283 52.74178467 -10.47753418 53.05559082 -11.12109375 53.37890625 C-11.82943359 53.74306641 -12.53777344 54.10722656 -13.26757812 54.48242188 C-13.98365234 54.83884766 -14.69972656 55.19527344 -15.4375 55.5625 C-20.55412281 58.15090919 -25.47264496 60.83665606 -30.26416016 63.99511719 C-33.14825507 65.66472825 -34.75181711 65.72918391 -38 65 C-41.15395585 63.19699723 -44.09054673 61.17239177 -47 59 C-43.86477001 55.53434136 -40.57877018 53.44276594 -36.5 51.1875 C-35.25384748 50.48708371 -34.00775487 49.78656084 -32.76171875 49.0859375 C-30.35379051 47.74592698 -27.9388259 46.42117777 -25.51953125 45.1015625 C-24.46121094 44.51117188 -23.40289062 43.92078125 -22.3125 43.3125 C-21.35988281 42.79300781 -20.40726562 42.27351563 -19.42578125 41.73828125 C-16.57798387 39.69758908 -15.54907197 38.13646981 -14 35 C-13.42845561 31.65501601 -13.42845561 31.65501601 -13.3125 28.1875 C-13.24675781 27.02605469 -13.18101562 25.86460937 -13.11328125 24.66796875 C-13.07589844 23.78753906 -13.03851563 22.90710938 -13 22 C-13.71317383 22.39678955 -14.42634766 22.7935791 -15.16113281 23.20239258 C-16.66691895 24.04000122 -16.66691895 24.04000122 -18.203125 24.89453125 C-19.31977539 25.51577881 -20.43642578 26.13702637 -21.58691406 26.77709961 C-24.04049193 28.14131436 -26.49568244 29.5025653 -28.95214844 30.86157227 C-34.65679931 34.01929396 -40.35102451 37.1885052 -46 40.4453125 C-47.34143066 41.20944458 -47.34143066 41.20944458 -48.70996094 41.98901367 C-50.36070345 42.93036847 -52.00504019 43.88307854 -53.64160156 44.84887695 C-58.24655953 47.4537875 -61.56156982 48.75477594 -67 48 C-68.79296875 46.94140625 -68.79296875 46.94140625 -70.1875 45.5625 C-73.45256945 42.90917042 -75.82905667 42.68716082 -80 42.5625 C-85.00608184 42.29836 -88.25092162 41.70124154 -91.84765625 38.078125 C-94.29609289 33.66263926 -93.86827732 28.83657602 -93 24 C-90.95769333 20.47878161 -89.37173484 19.24782323 -86 17 C-80.60612612 16.56501017 -77.40187359 16.57632054 -73 20 C-72.2575 20.556875 -71.515 21.11375 -70.75 21.6875 C-68.20838366 25.04606444 -68.27802132 27.82968017 -68 32 C-56.7423183 33.29896327 -47.37054687 25.71571773 -38.0793457 20.18188477 C-30.70629333 15.79228973 -23.23428486 11.58333403 -15.75463867 7.37866211 C-14.81982666 6.85280518 -13.88501465 6.32694824 -12.921875 5.78515625 C-12.09268555 5.31988525 -11.26349609 4.85461426 -10.40917969 4.37524414 C-8.70655101 3.40332406 -7.03196054 2.38149026 -5.37988281 1.32592773 C-3 0 -3 0 0 0 Z " fill="#F6F6F6" transform="translate(217,125)"/>
<path d="M0 0 C3.83608097 3.12239149 3.83608097 3.12239149 4.6875 6.1875 C5.1660596 11.13261588 5.21070037 13.22829932 2.8125 17.625 C0.6875 20.1875 0.6875 20.1875 -1.3125 21.1875 C-1.62206715 24.51534691 -1.6690383 26.57746916 0.0390625 29.5 C3.92854816 33.44685271 8.49729827 35.81309821 13.3125 38.5 C15.46908906 39.72889525 17.62397525 40.96078262 19.77734375 42.1953125 C21.46512939 43.16259277 21.46512939 43.16259277 23.18701172 44.14941406 C29.15643078 47.60271387 35.01273748 51.2438784 40.875 54.875 C42.53039795 55.89944214 42.53039795 55.89944214 44.21923828 56.94458008 C46.18496499 58.16187386 48.1500001 59.38028593 50.11401367 60.6003418 C52.62659281 62.14993642 55.15293545 63.67418648 57.6875 65.1875 C56.32348902 69.27953295 54.53166647 69.61710108 50.74609375 71.5859375 C49.84444237 72.0611937 49.84444237 72.0611937 48.92457581 72.54605103 C46.99601647 73.56068181 45.06098954 74.56213042 43.125 75.5625 C40.6005097 76.87834537 38.07932228 78.20040433 35.55859375 79.5234375 C34.95026703 79.83980164 34.34194031 80.15616577 33.71517944 80.4821167 C30.40399672 82.21916219 27.25729421 84.0717803 24.16015625 86.1640625 C20.88854732 88.26259855 18.62889101 88.88012938 14.6875 88.1875 C12.29296875 87.0078125 12.29296875 87.0078125 9.875 85.3125 C6.40438181 82.96205375 2.93836986 80.72170668 -0.69921875 78.63671875 C-1.84136841 77.98195557 -1.84136841 77.98195557 -3.0065918 77.31396484 C-4.52178065 76.4505719 -6.04009985 75.59264517 -7.56176758 74.74072266 C-14.6528253 70.66704967 -14.6528253 70.66704967 -16.3125 67.1875 C-16.60546875 63.953125 -16.60546875 63.953125 -16.5 60.4375 C-16.47292969 59.26703125 -16.44585937 58.0965625 -16.41796875 56.890625 C-16.38316406 55.99859375 -16.34835938 55.1065625 -16.3125 54.1875 C-13.19293509 54.81814334 -10.89559501 55.87946102 -8.1953125 57.55078125 C-7.42316406 58.02580078 -6.65101562 58.50082031 -5.85546875 58.99023438 C-4.65857422 59.73756836 -4.65857422 59.73756836 -3.4375 60.5 C-2.25220703 61.22993164 -2.25220703 61.22993164 -1.04296875 61.97460938 C2.35099269 64.07254062 5.68717695 66.18727383 8.95703125 68.4765625 C13.1133093 71.08092557 16.82806857 71.65237834 21.6875 71.1875 C24.95557001 69.87447926 27.80399062 68.20038457 30.6875 66.1875 C26.30228119 62.42366847 21.52572779 59.60238123 16.5625 56.6875 C9.33973808 52.39936164 2.16871461 48.04140248 -4.9375 43.5625 C-5.74848145 43.05396484 -6.55946289 42.54542969 -7.39501953 42.02148438 C-8.5181958 41.31088867 -8.5181958 41.31088867 -9.6640625 40.5859375 C-10.32229004 40.17005371 -10.98051758 39.75416992 -11.65869141 39.32568359 C-13.3125 38.1875 -13.3125 38.1875 -15.3125 36.1875 C-15.57159088 32.85263025 -15.67892297 29.55970214 -15.703125 26.21679688 C-15.87260566 21.12766932 -17.03456081 18.95937523 -20.3125 15.1875 C-21.23910219 11.1551829 -21.23108516 7.02843502 -19.359375 3.27734375 C-13.95260436 -3.68643996 -7.503093 -4.10546598 0 0 Z " fill="#F6F6F6" transform="translate(114.3125,137.8125)"/>
<path d="M0 0 C3.12756583 1.66247177 5.98564815 3.64435051 8.875 5.6875 C9.62652344 6.20505859 10.37804687 6.72261719 11.15234375 7.25585938 C12.66857667 8.30005752 14.18129861 9.34937252 15.69042969 10.40380859 C18.81106293 12.56054222 21.98100745 14.63961372 25.15673828 16.71411133 C27 18 27 18 29 20 C29.1953125 23.2578125 29.1953125 23.2578125 29.125 27.125 C29.10695313 28.40632813 29.08890625 29.68765625 29.0703125 31.0078125 C29.04710937 31.99523438 29.02390625 32.98265625 29 34 C24.82838877 33.43713009 22.21607805 32.07476712 18.76953125 29.69140625 C17.80208984 29.02689453 16.83464844 28.36238281 15.83789062 27.67773438 C14.83951172 26.97970703 13.84113281 26.28167969 12.8125 25.5625 C11.80251953 24.86833984 10.79253906 24.17417969 9.75195312 23.45898438 C2.33206507 18.33206507 2.33206507 18.33206507 0 16 C-6.85890572 14.92163457 -11.33771286 16.22514191 -17 20 C-17.66 20 -18.32 20 -19 20 C-16.86584474 22.27081098 -14.69373993 23.96874253 -12.0703125 25.64453125 C-11.28446777 26.15008545 -10.49862305 26.65563965 -9.68896484 27.17651367 C-8.84285645 27.71638916 -7.99674805 28.25626465 -7.125 28.8125 C-5.3274662 29.97033202 -3.53061478 31.12922398 -1.734375 32.2890625 C-0.79916016 32.89266602 0.13605469 33.49626953 1.09960938 34.11816406 C5.96385766 37.27419317 10.79706593 40.47628252 15.625 43.6875 C16.98407471 44.58722534 16.98407471 44.58722534 18.37060547 45.50512695 C19.20994629 46.06417725 20.04928711 46.62322754 20.9140625 47.19921875 C22.0270874 47.93918091 22.0270874 47.93918091 23.16259766 48.6940918 C25 50 25 50 27 52 C27.25820161 55.15005962 27.36642218 58.25559449 27.390625 61.4140625 C27.51339778 64.87898319 27.71212998 66.65751433 29.9765625 69.3515625 C30.64429688 69.89554687 31.31203125 70.43953125 32 71 C33.5547669 74.10953379 33.28644437 76.56266761 33 80 C30.7481855 84.33682792 28.57681459 87.16927416 24 89 C19.39531177 89.67938023 16.1116396 89.66225338 12.0625 87.25 C8.03770196 82.85931123 7.56871687 79.2378068 7.671875 73.41796875 C8.13397183 70.01275519 9.45389929 68.24655945 12 66 C12.66 66 13.32 66 14 66 C12.67614858 58.64526987 9.01795376 55.82930279 3.05981445 51.63378906 C1.03650439 50.28876054 -1.00661725 48.98215562 -3.0625 47.6875 C-4.1772168 46.9759375 -4.1772168 46.9759375 -5.31445312 46.25 C-6.82692719 45.28481125 -8.34074741 44.32172845 -9.85595703 43.36083984 C-12.91267875 41.42071608 -15.9563616 39.46055786 -19 37.5 C-22.84337716 35.02702561 -26.68998576 32.55954161 -30.54296875 30.1015625 C-32.09122045 29.10949144 -33.63939855 28.1173055 -35.1875 27.125 C-35.91904297 26.66029297 -36.65058594 26.19558594 -37.40429688 25.71679688 C-38.08943359 25.27658203 -38.77457031 24.83636719 -39.48046875 24.3828125 C-40.08785889 23.99496582 -40.69524902 23.60711914 -41.32104492 23.20751953 C-43.07276386 21.94766758 -44.51812148 20.5641266 -46 19 C-34.40693384 12.84640656 -22.76493496 6.81829511 -11 1 C-10.33871094 0.5771875 -9.67742187 0.154375 -8.99609375 -0.28125 C-5.64974349 -1.48619804 -3.42439038 -0.8824661 0 0 Z " fill="#F6F6F6" transform="translate(129,28)"/>
<path d="M0 0 C2.3359375 1.41015625 2.3359375 1.41015625 4.375 3.0625 C5.06335938 3.61035156 5.75171875 4.15820312 6.4609375 4.72265625 C7.22277344 5.35494141 7.22277344 5.35494141 8 6 C4.63658933 9.870933 0.98204931 11.7254933 -3.5625 13.875 C-4.99414897 14.57286766 -6.42513592 15.27209501 -7.85546875 15.97265625 C-8.90806885 16.48530029 -8.90806885 16.48530029 -9.98193359 17.00830078 C-12.80548031 18.39582156 -15.59659054 19.83681498 -18.375 21.3125 C-19.22835937 21.76238281 -20.08171875 22.21226563 -20.9609375 22.67578125 C-23.27919833 23.99012977 -23.27919833 23.99012977 -25 27 C-25.29452584 29.38677076 -25.4928217 31.78626094 -25.625 34.1875 C-25.69976562 35.45980469 -25.77453125 36.73210937 -25.8515625 38.04296875 C-25.90054688 39.01878906 -25.94953125 39.99460938 -26 41 C-24.88625 40.3709375 -23.7725 39.741875 -22.625 39.09375 C-13.14380181 33.76619966 -3.5911646 28.68613814 6.17773438 23.90820312 C7.95068289 23.02457927 9.70239098 22.09873418 11.453125 21.171875 C12.49984375 20.62015625 13.5465625 20.0684375 14.625 19.5 C15.52476563 19.0153125 16.42453125 18.530625 17.3515625 18.03125 C20.45211442 16.82395545 22.69901842 16.67081624 26 17 C26.825 17.66 27.65 18.32 28.5 19 C31.84225166 21.57096282 34.84426678 21.07424733 38.9375 20.875 C46.76101478 20.69286526 46.76101478 20.69286526 50.375 23.25 C53.19996381 26.25421278 53.54016177 29.01062368 53.75 33.0625 C53.5060806 37.25064803 53.2386651 38.67747959 50.6875 42.125 C45.90001675 45.46510459 42.86143711 46.74558398 37 46 C33.31312732 44.36138992 31.04718208 42.48020953 29 39 C28.63546305 37.33987901 28.29821321 35.67330744 28 34 C17.46438879 32.38416848 9.93000646 37.06887704 1.125 42.0625 C-0.255337 42.8243954 -1.63684374 43.58417554 -3.01953125 44.34179688 C-5.72835038 45.82998483 -8.43029406 47.32954577 -11.12670898 48.84008789 C-36.44028223 63 -36.44028223 63 -40 63 C-40.05848285 56.10892132 -40.06565395 49.21932781 -40.02099609 42.328125 C-40.00744246 40.17971721 -39.99954477 38.03126281 -39.99853516 35.8828125 C-39.98868883 33.02456487 -39.93804641 30.17000855 -39.875 27.3125 C-39.87765869 26.44729736 -39.88031738 25.58209473 -39.88305664 24.69067383 C-39.75095892 20.55696161 -39.51190794 18.6068732 -36.7890625 15.37890625 C-35.14892578 14.24975586 -35.14892578 14.24975586 -33 13 C-32.03433105 12.43740479 -31.06866211 11.87480957 -30.07373047 11.29516602 C-27.184748 9.67534285 -24.2799382 8.11269077 -21.34130859 6.58642578 C-19.49542615 5.6226118 -17.66411182 4.63427593 -15.83203125 3.64453125 C-14.64924489 3.02449903 -13.46567624 2.40595634 -12.28125 1.7890625 C-10.68893555 0.94915771 -10.68893555 0.94915771 -9.06445312 0.09228516 C-5.51289896 -1.17362094 -3.59964017 -0.99677924 0 0 Z " fill="#F6F6F6" transform="translate(77,62)"/>
<path d="M0 0 C3.65258789 1.4256217 6.96353697 3.03131786 10.3515625 5.01171875 C11.36863281 5.60533203 12.38570312 6.19894531 13.43359375 6.81054688 C14.48675781 7.42994141 15.53992188 8.04933594 16.625 8.6875 C17.65496094 9.28755859 18.68492187 9.88761719 19.74609375 10.50585938 C38.46844177 21.46844177 38.46844177 21.46844177 41 24 C41.29231985 29.19959307 41.31409319 34.4018623 41.35009766 39.60888672 C41.36663297 41.36260267 41.39389123 43.1162519 41.43212891 44.86962891 C41.48699616 47.39781666 41.5087879 49.92442142 41.5234375 52.453125 C41.54610687 53.23351135 41.56877625 54.01389771 41.59213257 54.81793213 C41.57747057 58.61026151 41.22248861 60.69526062 38.96728516 63.78417969 C35.49613441 66.37626165 31.94860877 68.24615144 28 70 C27.99589111 68.86981445 27.99178223 67.73962891 27.98754883 66.57519531 C27.96575977 62.3777927 27.91147326 58.18132783 27.84741211 53.984375 C27.82422997 52.16871129 27.80983586 50.35291307 27.80444336 48.53710938 C27.79515497 45.92492839 27.75417063 43.3148635 27.70703125 40.703125 C27.7109639 39.89256653 27.71489655 39.08200806 27.71894836 38.24688721 C27.6257073 34.63704061 27.45615219 32.51364187 25.01831055 29.76855469 C21.04784917 27.44209491 17.06364947 25.1601971 13 23 C13.02220612 23.6882486 13.04441223 24.37649719 13.06729126 25.08560181 C13.28869366 32.25526956 13.43940735 39.42396605 13.54931641 46.59619141 C13.59394791 49.27327011 13.66773694 51.94500687 13.75439453 54.62158203 C13.87585586 58.46976284 13.93243741 62.31431357 13.9765625 66.1640625 C14.02817535 67.35802643 14.07978821 68.55199036 14.13296509 69.78213501 C14.13523026 73.1431435 14.04524832 75.80290962 13 79 C9.74476061 82.11631532 5.65793882 85 1 85 C0.95875 85.845625 0.9175 86.69125 0.875 87.5625 C-0.29556764 92.1611586 -2.20380045 95.11930803 -6 98 C-10.23034306 99.46463547 -13.65852648 99.53658941 -17.8125 97.875 C-23.66855524 92.85552408 -23.66855524 92.85552408 -24.45703125 88.44140625 C-24.71843959 83.96098894 -24.73268723 80.01766922 -21.875 76.375 C-17.6992046 72.82305837 -12.36048983 73.41277173 -7.14453125 73.49609375 C-3.8872981 73.34593948 -3.8872981 73.34593948 -2.33049011 70.89460754 C-0.74528267 67.44583826 -0.60279248 64.9810296 -0.56762695 61.19018555 C-0.5574353 60.52621262 -0.54724365 59.86223969 -0.53674316 59.17814636 C-0.50670435 56.99758365 -0.49736171 54.81746086 -0.48828125 52.63671875 C-0.47142771 51.11927338 -0.45327655 49.60184192 -0.43388367 48.08442688 C-0.38645048 44.10114893 -0.35659816 40.11792737 -0.33044434 36.13446045 C-0.30060491 32.06543851 -0.25408625 27.9966107 -0.20898438 23.92773438 C-0.12302737 15.95191845 -0.05564855 7.97608471 0 0 Z " fill="#F8F8F8" transform="translate(169,47)"/>
<path d="M0 0 C1.9375 1.125 1.9375 1.125 3 3 C3.5 5.875 3.5 5.875 3 9 C0.68447809 12.04325737 -0.80935592 13.709599 -4.5625 14.625 C-7 14 -7 14 -9.3125 11.875 C-11.28007433 8.52283633 -11.66430408 6.81974849 -11 3 C-7.93785504 -0.67457395 -4.53919184 -0.49518456 0 0 Z " fill="#121212" transform="translate(153,98)"/>
<path d="M0 0 C2.375 1.0625 2.375 1.0625 4 3 C4.57491549 6.95254396 4.61372366 9.07941451 2.375 12.4375 C-0.7370662 14.48491197 -2.34394496 14.68551032 -6 14 C-8.62846098 11.57904909 -9.81388233 9.95385308 -10.5 6.4375 C-9.30437154 0.60881127 -5.52886037 -0.80629214 0 0 Z " fill="#131313" transform="translate(160,126)"/>
<path d="M0 0 C2.5 1.5625 2.5 1.5625 4 4 C4 7.82389746 3.85254277 10.05611336 1.25 12.9375 C-1.52291498 14.24693207 -2.97519717 14.60496057 -6 14 C-8.87282369 11.36010796 -9.89439729 9.75430505 -10.4375 5.875 C-10 3 -10 3 -8.9375 1.125 C-5.84902396 -0.66830867 -3.48856031 -0.42841969 0 0 Z " fill="#0F0F0F" transform="translate(139,148)"/>
<path d="M0 0 C2.375 1.625 2.375 1.625 4 4 C4.61195145 7.6717087 4.48706506 9.28813568 2.375 12.375 C0 14 0 14 -3 14.5625 C-6 14 -6 14 -8.375 11.8125 C-10.14232156 8.75367423 -10.70698088 7.44653179 -10 4 C-7.16979976 -0.02759265 -4.82432618 -0.80405436 0 0 Z " fill="#131313" transform="translate(121,88)"/>
<path d="M0 0 C2.375 1.0625 2.375 1.0625 4 3 C4.57491549 6.95254396 4.61372366 9.07941451 2.375 12.4375 C-0.69861159 14.45961289 -2.38925156 14.61459548 -6 14 C-8.83268842 11.63942631 -8.98743809 10.11933812 -9.375 6.4375 C-9 3 -9 3 -7.875 1.0625 C-5.09808875 -0.51108304 -3.13770673 -0.38420899 0 0 Z " fill="#111111" transform="translate(109,141)"/>
<path d="M0 0 C2.09375 -0.3984375 2.09375 -0.3984375 4.5 -0.375 C5.2940625 -0.38273437 6.088125 -0.39046875 6.90625 -0.3984375 C7.5971875 -0.26695313 8.288125 -0.13546875 9 0 C11.34549674 3.51824511 11.57991403 4.85775694 11 9 C8.8125 11.9375 8.8125 11.9375 6 14 C2.42917202 13.91498029 1.00620093 13.00413395 -2 11 C-2.56737589 3.85106383 -2.56737589 3.85106383 0 0 Z " fill="#111111" transform="translate(93,112)"/>
<path d="M0 0 C0.33 0 0.66 0 1 0 C1 2.64 1 5.28 1 8 C2.11375 7.319375 3.2275 6.63875 4.375 5.9375 C6.2734375 4.77734375 6.2734375 4.77734375 8 4 C8.66 4.33 9.32 4.66 10 5 C5.69230769 8.93846154 5.69230769 8.93846154 2.1875 9.25 C1.465625 9.1675 0.74375 9.085 0 9 C0 6.03 0 3.06 0 0 Z " fill="#4A4949" transform="translate(36,117)"/>
<path d="M0 0 C0 0.33 0 0.66 0 1 C-0.94875 1.28875 -1.8975 1.5775 -2.875 1.875 C-6.29061694 3.1046221 -7.44299081 3.94787154 -9.125 7.125 C-9.41375 7.74375 -9.7025 8.3625 -10 9 C-10.35789474 3.63157895 -10.35789474 3.63157895 -8.9375 1.125 C-5.99772876 -0.58196395 -3.32129197 -0.18799766 0 0 Z " fill="#3F3F3F" transform="translate(139,148)"/>
<path d="M0 0 C0 0.33 0 0.66 0 1 C-1.093125 1.309375 -2.18625 1.61875 -3.3125 1.9375 C-5.55407994 2.58337897 -7.7869351 3.2623117 -10 4 C-10 5.65 -10 7.3 -10 9 C-10.33 9 -10.66 9 -11 9 C-11.48192771 3.57831325 -11.48192771 3.57831325 -9.4375 1.125 C-6.19726212 -0.3704944 -3.52393641 -0.20330402 0 0 Z " fill="#3C3D3C" transform="translate(153,98)"/>
<path d="M0 0 C0.99 0.33 1.98 0.66 3 1 C2.38125 1.5775 1.7625 2.155 1.125 2.75 C-0.81347053 4.80249821 -1.90014249 6.43366582 -3 9 C-3.36923077 3.46153846 -3.36923077 3.46153846 -1.5 1.125 C-1.005 0.75375 -0.51 0.3825 0 0 Z " fill="#D0D1D0" transform="translate(46,138)"/>
<path d="M0 0 C0.66 0.33 1.32 0.66 2 1 C0.25 4.875 0.25 4.875 -2 6 C-2.99 5.01 -3.98 4.02 -5 3 C-2.625 1.4375 -2.625 1.4375 0 0 Z " fill="#BFBFC0" transform="translate(88,44)"/>
</svg>
